<?xml version="1.0" encoding="UTF-8" standalone="no"?>
<!-- Created with Inkscape (http://www.inkscape.org/) -->

<svg
   version="1.1"
   id="svg1"
   width="874.14734"
   height="756.03986"
   viewBox="0 0 874.14732 756.03989"
   sodipodi:docname="92c.svg"
   inkscape:version="1.3.2 (091e20ef0f, 2023-11-25)"
   xmlns:inkscape="http://www.inkscape.org/namespaces/inkscape"
   xmlns:sodipodi="http://sodipodi.sourceforge.net/DTD/sodipodi-0.dtd"
   xmlns="http://www.w3.org/2000/svg"
   xmlns:svg="http://www.w3.org/2000/svg">
  <defs
     id="defs1" />
  <sodipodi:namedview
     id="namedview1"
     pagecolor="#ffffff"
     bordercolor="#000000"
     borderopacity="0.25"
     inkscape:showpageshadow="2"
     inkscape:pageopacity="0.0"
     inkscape:pagecheckerboard="0"
     inkscape:deskcolor="#d1d1d1"
     showgrid="false"
     inkscape:zoom="0.65315642"
     inkscape:cx="384.28774"
     inkscape:cy="320.75012"
     inkscape:window-width="1920"
     inkscape:window-height="1011"
     inkscape:window-x="0"
     inkscape:window-y="0"
     inkscape:window-maximized="1"
     inkscape:current-layer="layer2" />
  <g
     inkscape:groupmode="layer"
     id="layer2"
     inkscape:label="Layer 1">
    <path
       style="fill:#000000"
       d="m 72.24,143.12009 c -17.167586,-0.10148 -16.324402,0.15241 -12.22085,-3.67985 3.854025,-3.59924 6.275934,-7.44772 7.610437,-12.0932 0.663414,-2.30939 1.161042,-9.7955 1.158434,-17.42704 l -0.0021,-6.08 -0.608657,1.34064 c -0.860948,1.89634 -2.614145,2.91256 -5.958837,3.454 -2.677505,0.43343 -5.418678,1.4723 -7.163922,2.71502 -1.802916,1.28379 -2.22862,1.00101 -4.254528,-2.82611 -1.012,-1.91176 -1.84,-3.7647 -1.84,-4.11765 0,-0.56831 -0.26545,-0.66039 -2.32,-0.80477 -1.276,-0.0897 -3.112,-0.43261 -4.08,-0.76208 L 40.8,102.24 l -1.231572,1.23158 c -1.94861,1.94861 -4.169215,2.76847 -7.497552,2.76816 C 30.535894,106.2396 28.2,106.01082 26.88,105.73136 c -1.790126,-0.37901 -3.202061,-0.45309 -5.556303,-0.29152 l -3.156302,0.2166 0.194567,-1.38822 c 0.593747,-4.23633 0.588234,-4.581166 -0.10664,-6.670464 -0.380069,-1.142764 -0.775169,-3.320083 -0.878001,-4.838488 L 17.190354,89.998533 15.602393,89.810462 C 12.85882,89.485527 10.167934,87.494016 8.3999909,84.480004 6.8882537,81.902774 6.051294,80.998928 3.8079933,79.521035 1.2403471,77.829461 1.0650759,77.241121 2.5661028,75.352324 c 0.5313565,-0.668625 1.7120823,-2.596426 2.6238351,-4.284002 1.8775477,-3.475178 3.774576,-5.682259 5.8138801,-6.764108 1.374321,-0.729075 1.389161,-0.75473 0.996181,-1.722156 -0.219408,-0.54013 -0.573514,-1.990055 -0.786903,-3.222056 -0.213389,-1.232 -0.663631,-2.962783 -1.000538,-3.846184 -0.8586974,-2.251585 -0.8028083,-2.916966 0.267442,-3.184 1.196523,-0.298539 3.768711,-1.593214 5.546892,-2.79195 l 1.466891,-0.988885 -0.458018,-1.314491 c -0.25191,-0.722969 -0.535047,-2.408009 -0.629193,-3.744532 l -0.171175,-2.430042 2.207259,-0.185048 c 1.213992,-0.101777 2.964076,-0.483359 3.889076,-0.84796 0.924999,-0.3646 2.449061,-0.753084 3.386803,-0.863298 l 1.704986,-0.200387 0.353193,-1.961612 c 0.194255,-1.078886 0.269914,-2.840097 0.16813,-3.913801 -0.175895,-1.855487 -0.14741,-1.962267 0.575047,-2.15563 0.41806,-0.111893 1.202457,-0.205408 1.743105,-0.207811 0.540647,-0.0024 1.625661,-0.223348 2.411141,-0.490988 l 1.428146,-0.486618 -0.279669,-2.633382 c -0.507162,-4.77546 -0.578822,-4.453708 1.087524,-4.882941 0.808576,-0.20828 2.387674,-0.844949 3.509105,-1.414819 1.151963,-0.585386 2.754087,-1.109935 3.682822,-1.205789 l 1.643856,-0.169661 -0.03296,-1.149935 c -0.03238,-1.129634 -0.0068,-1.153792 1.451001,-1.368404 0.816178,-0.120157 2.760178,-0.751103 4.32,-1.402102 1.55982,-0.650999 3.484038,-1.322052 4.276038,-1.491229 1.313411,-0.280554 4.948859,-0.140723 6.585491,0.253299 0.561304,0.135135 0.859104,-0.22123 1.902188,-2.276268 1.100146,-2.1674593 1.251818,-2.7527731 1.373651,-5.3010095 l 0.136954,-2.8645243 h 0.881778 c 0.484978,0 1.439365,0.2372908 2.120858,0.5273129 0.924982,0.3936427 2.374729,0.5417961 5.71908,0.5844474 4.89578,0.062437 6.708288,0.5520232 8.540989,2.3070515 l 0.860988,0.8244986 2.019012,-1.4474552 c 1.110456,-0.7961004 2.643845,-2.1828452 3.407531,-3.0816553 1.735401,-2.0424564 2.536357,-2.1278125 3.352428,-0.3572609 0.824589,1.7890323 2.907203,4.1974848 6.499732,7.5166568 2.175831,2.01027 3.15547,2.731311 3.26076,2.4 0.0828,-0.260478 0.7061,-1.008103 1.38517,-1.66139 1.40317,-1.349891 3.16718,-1.9717423 7.08583,-2.4979078 3.72266,-0.4998482 6.22316,-1.1938741 7.55012,-2.09557 0.63031,-0.4283004 1.50858,-0.7771673 1.95172,-0.7752599 0.70554,0.00304 0.91414,0.2914998 1.67771,2.32 0.4796,1.2740927 1.81021,3.7360107 2.95693,5.4709287 1.14671,1.734917 2.24628,3.750918 2.44347,4.48 0.59159,2.187285 0.21094,5.53369 -0.86059,7.565604 -0.51047,0.968 -0.97696,1.868 -1.03663,2 -0.0597,0.132 1.10461,0.24 2.58731,0.24 2.65817,0 3.16962,0.112931 7.91752,1.748238 1.32,0.454644 3.45716,0.917524 4.74924,1.028621 l 2.34924,0.201996 -0.19704,1.150573 c -0.10838,0.632815 -0.28231,2.050572 -0.38652,3.150572 l -0.18948,2.000001 h 2.90073 c 2.78517,0 2.99379,0.05121 5.23727,1.285536 1.28511,0.707046 2.87656,1.520889 3.53656,1.808541 0.76427,0.333098 1.2,0.737448 1.2,1.113584 0,0.324819 -0.70411,1.956766 -1.56469,3.62655 l -1.56469,3.03597 1.65481,0.88491 c 0.91014,0.4867 2.55025,1.307386 3.64469,1.823747 2.1928,1.034577 2.39295,1.487237 1.52555,3.450306 -0.25538,0.577971 -0.88251,2.346856 -1.39364,3.930856 -0.51112,1.584001 -1.02815,3.107434 -1.14896,3.385409 -0.1634,0.375991 0.1144,0.656043 1.0849,1.093676 1.52553,0.687918 3.20681,2.446699 4.19321,4.386497 0.9428,1.85405 3.03575,4.947001 4.34116,6.415341 1.36368,1.533887 1.43059,2.817158 0.18766,3.599065 -0.484,0.304476 -2.464,2.186739 -4.4,4.182805 -2.90987,3.000153 -3.88053,3.790305 -5.6,4.5586 -1.144,0.511164 -2.48909,1.027493 -2.98909,1.147398 -0.71446,0.171333 -0.85438,0.335036 -0.65351,0.76461 0.14058,0.30063 0.30826,1.650561 0.37263,2.999845 0.10055,2.107802 -0.004,2.738632 -0.74448,4.48 -0.68448,1.610287 -0.89404,2.700749 -1.01982,5.306752 l -0.15832,3.28 h -1.9795 c -1.32595,0 -2.97797,0.32038 -5.0037,0.97037 -5.4365,1.7444 -9.28299,1.57094 -12.0763,-0.54457 -1.14378,-0.86625 -2.62791,-3.00071 -2.62791,-3.77944 0,-0.64341 -0.0451,-0.63431 -2.16913,0.43766 -2.1137,1.06677 -4.92061,1.95598 -6.17426,1.95598 -0.68084,0 -0.91324,0.18914 -1.08131,0.88 -0.11775,0.484 -0.88936,2.28431 -1.71469,4.00068 -1.76437,3.66918 -1.23292,3.54645 -7.26061,1.6768 -4.96377,-1.53965 -6.05774,-2.12018 -7.29022,-3.86872 -1.0976,-1.55718 -1.03069,-1.54391 -4.46978,-0.8862 l -0.88,0.1683 -0.08,7.73457 c -0.164565,15.91047 0.09928,17.65621 3.299254,21.82961 1.407676,1.83589 4.323736,4.26879 7.260746,6.05773 1.54341,0.9401 2,1.39045 2,1.97272 v 0.75452 l -10.96,-0.0767 c -6.028,-0.0422 -17.548,-0.11563 -25.6,-0.16322 z"
       id="path1"
       transform="matrix(5.3460928,0,0,5.3460928,-8.6314564,-10.376084)" />
    <path
       id="path2"
       style="fill:#ff9955"
       d="M 88.563258 24.054715 C 88.372719 24.058662 88.219498 24.215438 87.982372 24.501157 C 87.75364 24.776762 87.179305 25.202564 86.705885 25.44738 L 85.845151 25.89236 L 86.791008 27.746079 C 87.599643 29.330809 87.713718 29.855434 87.576848 31.359992 C 87.379024 33.53458 86.432111 35.703037 85.13932 36.941609 C 84.461618 37.59089 84.276316 37.954054 84.539802 38.116898 C 84.773777 38.261502 85.387853 37.822026 86.129383 36.979604 C 86.794053 36.224498 87.810953 35.418222 88.388992 35.187992 C 88.967031 34.957762 89.479689 34.742845 89.528112 34.710131 C 89.576532 34.677422 89.324474 33.970318 88.968051 33.138817 C 87.825183 30.472614 88.354667 27.381367 90.183161 26.04434 C 90.622661 25.722969 90.567643 25.573697 89.742565 24.848592 C 89.115099 24.297157 88.808236 24.049641 88.563258 24.054715 z M 63.403236 29.764931 C 62.467152 29.773731 62.180908 30.211728 61.981344 31.940878 C 61.7876 33.619609 61.798408 33.647391 62.812486 34.088328 C 63.377544 34.334024 63.85261 34.540668 63.867944 34.547557 C 63.883274 34.554457 63.902544 33.480079 63.911054 32.16008 C 63.924054 30.143506 63.842975 29.760814 63.403236 29.764931 z M 44.261043 45.404639 C 44.053977 45.399663 43.959835 46.029634 43.747014 47.423125 C 43.630786 48.184146 43.732876 48.301444 44.607748 48.412092 C 45.153583 48.481122 45.708029 48.560749 45.840029 48.588915 C 45.972029 48.617085 46.080056 48.562951 46.080056 48.468719 C 46.080056 48.374489 45.657235 47.556826 45.140409 46.651899 C 44.681738 45.848795 44.432612 45.408762 44.261043 45.404639 z M 65.638001 46.033018 L 64.658899 46.756751 C 63.868714 47.340959 63.680161 47.712466 63.680161 48.684268 C 63.680161 49.497478 63.861595 49.990484 64.239857 50.203339 C 64.833071 50.537151 64.856055 50.480504 65.422818 47.256531 L 65.638001 46.033018 z M 68.529278 58.013877 C 68.294613 58.020349 68.170223 58.166726 68.086855 58.485527 C 67.96399 58.955363 68.167639 59.189958 68.941378 59.469744 C 70.750506 60.123934 71.763817 61.508479 71.959061 63.592937 L 72.13223 65.44008 L 72.364219 63.839904 C 72.491905 62.959905 72.521392 61.51367 72.429615 60.626036 C 72.266128 59.044807 72.235819 59.005137 70.931368 58.660523 C 70.199105 58.467071 69.29597 58.209873 68.924207 58.088771 C 68.765448 58.037055 68.635944 58.010935 68.529278 58.013877 z M 96.297075 58.0716 C 96.192184 58.072331 95.738967 58.116449 95.199968 58.179374 C 94.200548 58.29605 94.079845 58.412534 94.079845 59.261137 L 94.079845 60.212109 L 95.199968 59.155555 C 95.815967 58.574528 96.320091 58.087723 96.320091 58.073792 C 96.320091 58.072051 96.312059 58.071495 96.297075 58.0716 z M 93.749215 62.880164 L 93.107683 63.881187 C 92.754857 64.431879 91.919228 65.261736 91.250676 65.725043 L 90.0352 66.567144 L 90.173663 69.207434 C 90.273383 71.107273 90.17603 72.173238 89.826958 73.008765 C 89.362863 74.1195 89.371697 74.184408 90.030816 74.503358 C 91.132423 75.036425 91.199894 74.965088 91.199894 73.269615 C 91.199894 71.256426 91.766302 69.877842 93.281949 68.2002 C 94.381129 66.983539 94.440747 66.816939 94.113091 65.877023 C 93.918965 65.320154 93.75766 64.418156 93.754695 63.872419 L 93.749215 62.880164 z M 117.57868 64.755073 L 116.7132 65.632978 L 115.84771 66.511248 L 117.38797 67.022719 C 118.24403 67.307058 119.40912 68.030318 120.01073 68.651026 L 121.09322 69.767861 L 121.48304 69.044129 C 121.83422 68.392058 121.78796 68.288216 121.0165 67.999996 C 119.64286 67.486798 119.16574 67.110697 118.34844 65.897482 L 117.57868 64.755073 z M 52.545057 69.674335 C 52.060105 69.676499 51.839957 69.778756 51.839957 69.991447 C 51.839957 70.254646 52.295299 70.399894 53.120098 70.399894 C 53.824097 70.399894 54.399873 70.270983 54.399873 70.11347 C 54.399873 69.955957 53.824097 69.77216 53.120098 69.705023 C 52.897959 69.683838 52.706708 69.673613 52.545057 69.674335 z M 75.398342 73.642989 C 75.380217 73.643825 75.36744 73.647824 75.360347 73.655046 C 75.303607 73.712816 75.152021 74.322925 75.023507 75.010811 L 74.789691 76.261359 L 75.980689 75.353132 L 77.171322 74.444904 L 76.31753 73.997366 C 75.906544 73.782029 75.525221 73.637144 75.398342 73.642989 z M 84.585835 93.119831 C 84.546325 93.119831 83.836931 93.479919 83.009406 93.919918 C 82.181881 94.359918 81.238159 94.720006 80.912372 94.720006 C 80.444588 94.720006 80.320161 94.964523 80.320161 95.882874 C 80.320161 97.817864 79.631568 99.504619 78.185132 101.1134 C 76.423149 103.07315 75.147572 103.65995 72.432537 103.75954 C 71.226646 103.80374 70.134178 103.98395 70.004873 104.15995 C 69.875569 104.33595 69.765516 107.28794 69.760098 110.71994 C 69.747728 118.55599 69.252143 126.00039 68.589558 128.30689 C 67.30612 132.77461 64.914494 136.66131 61.347485 140.07658 L 59.262142 142.07351 L 73.551199 142.1601 C 81.410083 142.2078 92.159854 142.28033 97.439848 142.32158 L 107.04017 142.39684 L 104.61251 140.80762 C 100.26404 137.96078 96.84863 134.05967 96.043165 131.01988 C 95.344155 128.38184 95.111935 123.36679 95.279246 114.52309 L 95.452416 105.36665 L 93.971705 105.14453 C 92.081668 104.8611 88.468463 103.05936 87.092411 101.71402 C 85.253475 99.916118 84.650376 98.403935 84.654153 95.600103 C 84.655953 94.236104 84.625345 93.119831 84.585835 93.119831 z "
       transform="matrix(5.3460928,0,0,5.3460928,-8.6314564,-10.376084)" />
    <path
       id="path3"
       style="fill:#ff0000"
       d="M 89.187984 3.4595779 L 87.713849 5.0659643 C 86.148939 6.7711822 82.863271 9.1993732 80.067713 10.71663 C 77.940277 11.87127 75.999202 13.954048 75.501002 15.616894 C 75.042649 17.146737 75.31959 19.386323 76.092117 20.398424 C 76.393762 20.793612 78.117097 21.757854 79.921578 22.541124 C 81.726061 23.324395 83.512018 24.182285 83.890599 24.447452 C 84.703199 25.01662 85.218861 24.807083 87.027016 23.173523 C 87.692775 22.572049 88.345239 22.080069 88.476673 22.080069 C 88.608107 22.080069 89.227925 22.52998 89.854358 23.079996 C 91.36893 24.409807 92.775481 24.961595 94.629677 24.953079 C 97.930426 24.937919 100.04334 23.031091 100.37789 19.76566 C 100.71402 16.484697 100.25478 15.656265 95.534251 11.028993 C 93.194046 8.7350197 90.808646 6.0937307 90.233578 5.1591252 L 89.187984 3.4595779 z M 64.71516 4.863933 L 64.580351 7.6839686 C 64.455876 10.287456 64.327402 10.738802 62.904185 13.56845 C 61.474668 16.410629 61.372552 16.771221 61.49983 18.530821 C 61.60346 19.963486 61.867821 20.761243 62.57867 21.788165 C 63.48285 23.094379 66.054797 25.257053 66.720129 25.270557 C 66.896129 25.274157 67.946322 24.468791 69.053902 23.480771 C 70.224251 22.436758 71.406884 21.014954 71.87759 20.08606 C 72.323051 19.206985 72.945659 18.420149 73.261487 18.337558 C 73.69143 18.225125 73.879978 17.761907 74.010793 16.494433 C 74.319767 13.500756 75.8843 11.334951 79.006044 9.5804324 C 79.728666 9.1742964 80.320161 8.7468697 80.320161 8.6305565 C 80.320161 8.2133728 79.149573 7.3723539 77.638953 6.704135 C 76.34091 6.1299485 75.394521 6.0128604 71.570342 5.9533676 C 68.253053 5.9017606 66.728777 5.7466085 65.877662 5.373578 L 64.71516 4.863933 z M 118.18039 7.3953524 C 118.04831 7.4038653 117.64444 7.6268017 117.20604 7.9389737 C 116.11675 8.7146154 113.44302 9.4320487 109.84048 9.9158117 C 104.95786 10.57147 102.58458 11.720408 101.52578 13.940728 C 101.09967 14.834298 101.0756 15.230567 101.38585 16.266098 C 101.59154 16.952619 101.75996 18.166763 101.75996 18.964111 C 101.75996 20.223013 101.9088 20.544329 102.89104 21.406753 C 104.13912 22.50258 104.59554 22.561696 107.88337 22.051573 C 109.11874 21.859898 110.21624 21.789452 110.32199 21.895209 C 110.42775 22.000966 110.19832 23.058044 109.81235 24.24396 C 109.42639 25.429877 109.11274 26.640935 109.11529 26.935397 C 109.12229 27.769721 110.94768 29.392202 112.25682 29.728032 C 112.90757 29.894968 113.72785 30.105591 114.07985 30.196029 C 115.41028 30.53785 118.20876 30.049749 119.75974 29.2056 C 121.57073 28.219939 122.59058 27.110311 123.70428 24.912526 C 125.42269 21.521398 125.09381 19.394688 122.1706 14.987419 C 121.08278 13.347339 119.77213 10.996231 119.25777 9.7627356 C 118.74342 8.5292406 118.27642 7.4684165 118.21985 7.4052165 C 118.21277 7.3973165 118.19926 7.3941363 118.18039 7.3953524 z M 56.367943 14.973536 C 54.367723 14.965736 53.568845 15.124109 51.999975 15.840115 C 49.240838 17.09934 46.759374 17.919978 45.709969 17.919978 C 44.598386 17.919978 44.524772 18.533671 45.481268 19.827402 C 46.11541 20.685124 46.15937 21.105911 46.115493 25.913549 C 46.061063 31.877359 46.244625 32.525719 48.570192 34.572765 C 49.886278 35.73123 50.081294 35.808547 50.689877 35.41377 C 51.058488 35.174659 52.183546 34.672259 53.189877 34.297666 C 54.196208 33.923072 56.211972 33.519315 57.669638 33.400399 C 59.127305 33.281483 60.425764 33.025975 60.555069 32.8323 C 60.684374 32.638625 60.7924 31.741302 60.795095 30.838656 C 60.799795 29.280586 60.85262 29.178284 61.839959 28.815055 C 63.404812 28.239366 65.600006 27.082435 65.600006 26.833468 C 65.600006 26.712581 64.987856 26.147956 64.239857 25.578536 C 61.176987 23.246901 60.177364 21.389314 60.167081 18.011312 C 60.158481 15.188654 59.906805 14.987323 56.367943 14.973536 z M 43.909954 20.493776 C 43.68041 20.491088 43.365912 20.522749 42.925737 20.574881 C 42.089267 20.673951 40.404792 21.256556 39.182495 21.86927 C 37.960199 22.481984 36.426692 23.082542 35.774997 23.204211 L 34.59021 23.425605 L 34.755708 25.552962 C 35.006763 28.782591 35.136429 29.215381 35.773536 28.952422 C 36.074163 28.82834 37.111909 28.51237 38.079908 28.249879 C 39.226217 27.939036 40.704756 27.82167 42.320008 27.913404 L 44.799915 28.054058 L 44.84814 25.94716 C 44.905139 23.458329 44.843647 22.198471 44.614324 21.157594 C 44.50735 20.672027 44.414951 20.49969 43.909954 20.493776 z M 73.490553 20.524099 C 72.204199 22.530205 71.269358 23.641127 69.945689 24.735703 C 66.160182 27.866038 65.264293 29.281833 65.304449 32.069842 C 65.334209 34.136137 65.758295 35.342851 67.14319 37.301101 L 68.206685 38.804828 L 69.928153 38.626908 C 70.875077 38.529179 72.050193 38.257563 72.539581 38.023007 C 73.028968 37.788449 73.766772 36.985349 74.178848 36.238336 C 74.657546 35.370548 75.15052 34.880013 75.544112 34.880013 C 75.882924 34.880013 76.16007 35.018703 76.16007 35.188357 C 76.16007 35.358012 76.697501 35.862136 77.354356 36.30848 C 78.336871 36.976117 78.926005 37.119894 80.67673 37.119894 C 82.743681 37.119894 82.842595 37.08212 84.125145 35.799566 C 85.865411 34.0593 86.657009 31.569656 86.085908 29.632679 C 85.438173 27.435787 82.916375 25.278885 79.384533 23.900908 C 77.749285 23.262903 75.770865 22.216252 74.988069 21.574808 C 74.205272 20.933365 73.53139 20.460412 73.490553 20.524099 z M 100.9869 23.359845 L 99.815269 24.504445 C 98.486722 25.801736 97.105789 26.221302 94.128069 26.232489 C 92.255532 26.239489 92.01196 26.323905 91.026724 27.309136 C 89.702888 28.632973 89.390682 29.7938 89.87299 31.597096 C 90.504627 33.958712 91.070063 34.559978 92.659415 34.559978 C 93.652274 34.559978 94.75156 34.925313 96.534909 35.848156 C 97.904109 36.556686 99.164843 37.276863 99.336312 37.448332 C 99.844142 37.956161 100.42217 37.805883 100.64349 37.108568 C 100.75722 36.750231 101.59512 35.698928 102.50524 34.772239 C 103.74252 33.512445 104.6041 32.948777 105.92005 32.538569 L 107.67988 31.989833 L 107.69705 29.034988 C 107.70775 27.16841 107.90013 25.579074 108.21948 24.719994 L 108.72511 23.359845 L 104.85619 23.359845 L 100.9869 23.359845 z M 126.26931 29.121938 C 123.92137 29.124538 122.54547 29.597181 120.97558 30.940951 C 119.26605 32.404243 118.41609 34.205892 118.4069 36.386663 L 118.39996 38.053695 L 120.03776 38.626908 C 120.93848 38.942146 121.75308 39.398836 121.84801 39.641814 C 121.94291 39.884793 121.75872 40.569736 121.43883 41.163808 C 121.1189 41.75788 120.95262 42.339154 121.06911 42.455639 C 121.18559 42.572124 122.08427 42.734049 123.06641 42.815496 C 125.01421 42.977023 125.05606 43.022237 125.3841 45.315497 L 125.6044 46.854661 L 127.80483 47.609812 C 129.01505 48.024999 130.52606 48.706016 131.16264 49.123403 C 132.74449 50.160573 134.28329 50.154542 135.10645 49.108059 C 135.45766 48.661566 136.58818 47.870713 137.61887 47.350423 C 140.07925 46.108432 140.45483 45.072287 139.85108 41.191208 C 139.6248 39.736627 139.49797 37.091203 139.5694 35.312572 L 139.69946 32.078975 L 137.60974 31.883885 C 136.46039 31.776666 134.44011 31.318344 133.12011 30.865326 C 128.46896 29.269068 127.88351 29.12017 126.26931 29.121938 z M 41.621849 29.124861 C 40.311419 29.147666 38.537889 29.567529 36.050096 30.404636 C 33.965586 31.106043 31.805422 31.682008 31.249935 31.684411 C 29.027099 31.694011 28.849312 31.868688 29.025398 33.868761 C 29.116488 34.903452 28.9652 36.827187 28.672483 38.355463 C 28.15345 41.065374 28.011676 44.373854 28.359024 45.669508 C 28.463624 46.059679 28.857373 46.472247 29.234371 46.586504 C 30.586139 46.996184 32.051077 48.410214 32.884817 50.110178 C 33.351408 51.061537 33.742199 51.840048 33.752858 51.840048 C 33.763518 51.840048 34.89436 51.276386 36.26601 50.587308 C 37.637661 49.898231 39.47376 49.162879 40.346458 48.953521 C 41.250311 48.736691 42.065871 48.325161 42.241461 47.997069 C 42.410998 47.680286 42.642973 46.417648 42.756951 45.191282 C 42.926351 43.368613 42.860179 42.785298 42.394172 41.996411 C 41.69271 40.808931 41.9081 40.151514 43.094157 39.85919 C 43.592371 39.736396 45.049544 38.98424 46.332138 38.187773 L 48.664083 36.739578 L 47.224656 35.399157 C 45.800816 34.073215 44.799915 32.287822 44.799915 31.073568 C 44.799915 30.728689 44.420452 30.147972 43.956717 29.783198 C 43.37998 29.329536 42.641073 29.107123 41.621849 29.124861 z M 109.22233 29.745203 C 108.97031 29.713172 108.7939 30.119092 108.85955 30.799931 C 108.94685 31.705499 109.13667 31.901042 110.32674 32.312425 C 111.09771 32.578936 112.76963 33.72964 114.16241 34.95235 C 115.5204 36.1445 116.72086 37.119894 116.8301 37.119894 C 116.93934 37.119894 117.11967 36.252424 117.23051 35.192011 C 117.34134 34.131598 117.64454 32.852509 117.90456 32.34969 L 118.37731 31.435617 L 116.34165 31.598922 C 114.81249 31.721668 113.74438 31.591688 112.04931 31.076856 C 110.80813 30.69986 109.70485 30.24948 109.59753 30.075833 C 109.46723 29.865003 109.33688 29.759762 109.22233 29.745203 z M 108.31191 33.450084 C 107.47152 33.473081 106.58537 33.746329 105.57809 34.256018 C 104.42146 34.841281 102.42939 36.829294 101.77567 38.050772 C 101.44865 38.661816 101.5682 38.784661 103.18916 39.501525 C 104.16312 39.93226 104.95994 40.423344 104.95994 40.592786 C 104.95994 40.762228 104.60578 41.598283 104.17264 42.450524 C 103.73949 43.302767 103.29636 44.377552 103.18806 44.839097 C 103.02106 45.550835 103.11776 45.710048 103.82521 45.887614 C 104.39907 46.031643 104.71385 46.369118 104.83354 46.968646 C 104.99939 47.799421 105.08304 47.834648 106.62953 47.725989 C 108.90826 47.565882 111.61807 48.214987 113.1212 49.280863 C 113.82451 49.779582 114.50808 50.199511 114.64028 50.213934 C 114.77247 50.228354 115.43461 49.669272 116.11149 48.971788 C 117.25983 47.788503 118.71525 44.780005 118.72401 43.571378 C 118.72601 43.279039 119.08106 42.421531 119.51314 41.665781 C 120.22684 40.41743 120.24868 40.274613 119.74951 40.10287 C 117.00587 39.158897 115.06643 37.925449 112.48004 35.480262 C 110.98608 34.067866 109.71257 33.411758 108.31191 33.450084 z M 58.780628 34.599434 C 57.77477 34.595976 56.687444 34.748221 55.507209 35.053548 C 53.18287 35.654855 51.937172 36.28644 48.236639 38.740894 C 46.662004 39.785303 45.208403 40.642335 45.006696 40.64503 C 43.857091 40.660389 43.806733 41.195564 44.796992 42.875046 C 45.345737 43.805718 46.20314 45.376063 46.702224 46.364744 C 47.794813 48.52915 49.003296 49.807028 50.719834 50.612151 C 52.152209 51.28399 52.760731 51.236915 55.519996 50.241334 C 56.772861 49.789283 58.300732 49.529613 59.917191 49.49422 L 62.39454 49.44015 L 62.397098 47.905004 C 62.399598 46.539274 62.50501 46.310183 63.352088 45.825141 C 63.875685 45.525327 64.544482 44.8341 64.838279 44.289265 C 65.345023 43.349524 65.337235 43.182658 64.686299 41.039593 C 64.308906 39.797108 63.999831 38.704552 63.999831 38.611564 C 63.999831 38.518574 64.380595 38.396905 64.845951 38.341215 L 65.692071 38.240017 L 64.354573 36.906172 C 62.811677 35.3676 60.993514 34.607044 58.780628 34.599434 z M 91.576922 35.764859 C 90.112694 35.773238 88.892493 36.480059 87.439847 37.858605 C 86.203812 39.031588 86.191982 39.1293 87.120177 40.430577 C 87.739716 41.299135 87.839891 41.845044 87.839891 44.342239 C 87.839891 46.95889 87.754955 47.372702 86.976234 48.550555 C 86.359488 49.48341 85.581879 50.102462 84.256301 50.715907 C 81.608241 51.941364 81.49036 52.009491 81.367582 52.377824 C 81.297732 52.58738 82.588556 52.775357 84.86824 52.887835 C 89.778889 53.130122 92.215826 53.961175 93.209247 55.732348 C 93.89246 56.950448 93.969774 56.992412 95.199968 56.808996 C 95.903967 56.704033 97.124151 56.223371 97.911498 55.74075 C 98.737233 55.234598 99.736744 54.22641 100.2734 53.358388 C 101.08449 52.046473 101.23571 51.411407 101.45198 48.406612 C 101.60289 46.310021 101.96251 44.219499 102.37007 43.069771 C 102.73857 42.030219 103.0401 41.125292 103.0401 41.058591 C 103.0401 40.991891 102.42795 40.674889 101.67995 40.354221 C 100.93195 40.033554 99.361401 39.184348 98.189885 38.467256 C 95.209388 36.642879 93.23638 35.755363 91.576922 35.764859 z M 75.351579 36.355974 C 75.004858 36.370843 74.785783 36.733111 74.987338 37.258356 C 75.197603 37.806296 76.014047 37.935041 76.304012 37.465868 C 76.404016 37.304057 76.249002 36.934825 75.9595 36.645321 C 75.749961 36.435783 75.533195 36.348186 75.351579 36.355974 z M 66.362465 38.063924 C 66.328012 38.065793 66.303019 38.08398 66.289763 38.120186 C 66.094601 38.653214 66.525125 39.36014 67.044914 39.36014 C 67.485517 39.36014 67.476415 39.261815 66.974769 38.589644 C 66.727726 38.258621 66.48551 38.05725 66.362465 38.063924 z M 79.361152 38.320756 C 77.825301 38.364523 75.951667 38.712459 73.404333 39.354294 C 71.966229 39.716644 69.798027 39.992296 68.365607 39.995095 C 66.149907 39.999395 65.876021 40.063545 66.056678 40.534332 C 66.675491 42.146935 66.912045 46.001006 66.549152 48.557496 C 66.339659 50.033313 66.259278 51.697127 66.370867 52.255071 C 66.700884 53.905154 68.04636 55.601798 69.840472 56.630711 C 71.820955 57.766508 73.413952 57.871179 75.160143 56.980339 C 76.737023 56.175874 78.477719 54.359358 79.768502 52.171409 C 80.604038 50.755131 81.005282 50.381372 81.880515 50.203704 C 83.373336 49.90067 85.416161 48.38101 86.126826 47.045001 C 87.41659 44.620322 86.542188 41.05361 84.321696 39.681271 C 82.75167 38.710941 81.335816 38.264484 79.361152 38.320756 z M 140.72533 38.400034 L 140.91677 39.280131 C 141.36333 41.335474 141.51339 45.025153 141.17616 45.65526 C 140.84269 46.278364 140.93431 46.317413 143.16249 46.505764 C 144.44727 46.614368 146.06145 46.906147 146.74937 47.154237 C 148.87618 47.921238 148.93004 47.88765 150.49663 44.822657 L 151.95688 41.965722 L 150.77831 41.351956 C 150.13015 41.014478 148.61763 40.212166 147.41684 39.569112 C 145.49668 38.540818 144.96189 38.400034 142.97946 38.400034 L 140.72533 38.400034 z M 26.88014 40.015919 L 25.840026 40.214663 C 25.268026 40.323905 24.082124 40.691497 23.204851 41.031556 C 22.327578 41.371614 20.635529 41.731453 19.444803 41.831278 C 17.000842 42.036171 17.030351 41.986947 17.638212 44.864305 C 18.122209 47.155335 18.480797 47.783672 19.144496 47.503865 C 19.438998 47.379706 20.385036 47.001364 21.246645 46.662859 C 22.108253 46.324353 23.728285 45.961728 24.846675 45.857291 L 26.88014 45.667316 L 26.88014 42.8418 L 26.88014 40.015919 z M 120.48603 43.677691 C 120.16878 43.686313 119.91141 44.256571 119.41779 45.934377 C 118.8487 47.868726 118.4009 48.688863 117.22759 49.943219 C 116.41634 50.810516 115.84441 51.520013 115.95695 51.520013 C 116.0695 51.520013 116.65764 50.971052 117.26376 50.300153 C 118.60496 48.815604 121.00903 47.46219 122.81834 47.172869 C 123.90725 46.998747 124.15902 46.830366 124.15547 46.279255 C 124.14497 44.655593 123.82584 44.242228 122.45264 44.074082 C 121.71962 43.984322 120.89803 43.818759 120.62669 43.706553 C 120.57806 43.686444 120.53135 43.676459 120.48603 43.677691 z M 103.12413 47.028927 C 102.90151 47.031796 102.72388 47.365712 102.73029 47.919983 C 102.74029 48.753785 102.7643 48.768159 103.19975 48.19289 C 103.45251 47.858961 103.58367 47.462864 103.49092 47.312793 C 103.36966 47.116574 103.24073 47.027424 103.12413 47.028927 z M 25.112275 47.213056 C 22.797185 47.286418 20.088721 48.481524 15.840024 51.163444 C 14.784025 51.830027 13.230991 52.636454 12.389051 52.955422 C 11.547112 53.27439 10.925939 53.693942 11.008443 53.887762 C 11.322306 54.625093 11.816095 56.57066 12.302832 58.987134 C 12.580568 60.365997 12.999925 61.860856 13.234806 62.309143 C 13.652193 63.105753 13.733595 63.122943 16.831548 63.06539 C 19.14974 63.02232 20.345021 63.147701 21.280621 63.532291 C 22.86795 64.184776 24.501525 65.702173 25.314671 67.279917 C 26.008008 68.625195 26.272733 68.691485 27.767909 67.894048 C 28.963664 67.256304 30.907253 64.693536 31.197691 63.371177 C 31.408434 62.411671 29.862029 59.185271 28.102922 56.913847 C 26.850528 55.296708 26.945128 54.932017 28.725091 54.5092 C 29.563814 54.309967 30.783846 53.831947 31.436622 53.4468 L 32.623601 52.746449 L 31.847626 51.214957 C 30.844636 49.23565 29.500912 48.128802 27.338638 47.500211 C 26.611908 47.288945 25.883971 47.188603 25.112275 47.213056 z M 142.24002 47.853492 C 140.23549 47.851492 139.40222 47.99943 138.39996 48.53448 C 136.83303 49.370976 135.79312 50.454986 135.52659 51.529877 C 135.34166 52.275716 135.50449 52.426284 137.58307 53.431821 C 138.82448 54.032373 139.84012 54.727064 139.84012 54.975735 C 139.84012 55.224406 139.37604 56.013847 138.80877 56.730083 C 138.2415 57.446319 137.91742 58.081428 138.08869 58.141379 C 139.24291 58.545401 139.31078 58.770888 138.88367 60.783496 C 138.36496 63.227765 138.77155 64.862716 140.19669 66.061883 L 141.18164 66.890833 L 142.15014 65.525203 C 142.68273 64.774263 143.42487 63.906248 143.79928 63.596225 C 145.44093 62.236864 147.27315 61.690994 150.16564 61.69903 C 152.95712 61.70683 152.9737 61.701835 153.46353 60.754634 C 153.73429 60.231038 154.36668 58.478997 154.86898 56.861239 C 155.37128 55.243481 155.87915 53.677326 155.99751 53.380674 C 156.17102 52.945815 155.57208 52.520438 152.90639 51.184999 C 147.88503 48.669429 145.28272 47.856483 142.24002 47.853492 z M 124.56648 48.405516 C 122.55319 48.366536 120.68404 49.192272 118.89901 50.901863 C 116.96071 52.758244 117.02144 52.992807 119.92962 54.880017 C 121.01449 55.584016 121.90627 56.338802 121.91121 56.557278 C 121.91621 56.775755 121.43138 57.594685 120.8342 58.377022 C 120.23703 59.159359 119.50201 60.44482 119.20078 61.233591 C 118.73592 62.450795 118.71267 62.853242 119.04807 63.893974 C 119.57126 65.517472 119.92132 65.914625 121.42166 66.587238 C 122.68228 67.152382 122.68471 67.151836 123.6619 66.326753 C 124.19989 65.872516 125.21605 65.238569 125.92005 64.917648 C 126.83991 64.498327 127.98322 64.331948 129.98369 64.326898 C 132.74717 64.319898 132.77313 64.31228 133.55011 63.279843 C 133.98058 62.707843 134.78004 61.180452 135.32675 59.885498 C 135.87346 58.590543 136.74779 56.992168 137.26961 56.333327 L 138.21839 55.135387 L 136.8692 54.69333 C 136.12716 54.450155 134.29608 53.328485 132.80008 52.201001 C 129.44954 49.675813 128.27729 49.051674 125.98399 48.570648 C 125.5033 48.469824 125.03108 48.414511 124.56648 48.405516 z M 107.33609 48.975076 C 106.33383 48.984083 105.34577 49.189128 104.39623 49.59761 C 102.92722 50.229561 102.71118 50.446585 102.52497 51.476173 C 102.24164 53.04281 101.62683 54.191309 100.26463 55.699102 L 99.125513 56.95988 L 100.95658 56.95988 C 103.25803 56.95988 106.27595 57.729355 107.79423 58.702902 C 110.28394 60.299359 111.99999 62.82635 111.99999 64.896459 C 111.99999 66.436791 112.37411 66.551927 114.25704 65.591329 C 115.61292 64.899612 117.33107 62.810171 117.65467 61.459369 C 117.9105 60.391456 118.98099 58.231809 119.60849 57.518114 C 119.88023 57.209036 120.04353 56.912134 119.97127 56.858316 C 119.89907 56.804496 119.11994 56.239344 118.23994 55.602653 C 117.35994 54.965962 115.85214 53.629529 114.88944 52.632464 C 112.551 50.2106 109.89745 48.95206 107.33609 48.975076 z M 44.031612 49.683099 C 41.402233 49.734466 37.553959 51.282662 33.32176 54.024763 C 32.200701 54.751112 30.800312 55.43598 30.20982 55.546757 L 29.136095 55.748057 L 30.08451 57.126473 C 30.606038 57.88449 31.758904 60.065074 32.646618 61.972302 L 34.260676 65.44008 L 37.370424 65.44008 C 40.782754 65.44008 41.774198 65.777926 43.415654 67.500215 C 43.913128 68.022188 44.483122 68.456228 44.682642 68.464704 C 44.882162 68.473204 45.566329 67.903683 46.202809 67.199177 C 46.839288 66.494671 47.359338 65.810503 47.358735 65.67901 C 47.356535 65.193209 45.378047 60.595231 44.596057 59.25858 C 43.709721 57.743569 43.780337 56.95988 44.802838 56.95988 C 46.593862 56.95988 49.753659 54.458478 49.412659 53.310529 C 48.860869 51.452979 47.234213 50.117355 45.081224 49.753609 C 44.757778 49.698963 44.407237 49.675761 44.031612 49.683099 z M 60.088169 50.757555 C 56.597627 50.818755 53.804271 52.124579 50.551049 55.215031 C 49.182713 56.514904 47.637899 57.669953 46.975496 57.888566 L 45.809341 58.273266 L 46.769812 60.416697 C 47.298124 61.595516 48.043009 63.270735 48.425153 64.139481 C 50.02563 67.777909 51.723788 69.176016 54.371011 69.034995 L 55.782308 68.960101 L 56.682863 66.057499 C 58.01085 61.777798 59.992236 60.010189 64.37357 59.196472 C 66.097624 58.876275 67.200182 58.031132 67.200182 57.029659 C 67.200182 56.755015 66.94812 56.256014 66.640121 55.920496 C 66.332121 55.584979 65.719971 54.568873 65.279971 53.662714 C 64.188791 51.415479 62.924211 50.707831 60.088169 50.757555 z M 80.799848 53.82127 L 78.878542 55.829527 C 77.495151 57.275448 76.508994 57.996882 75.357424 58.405883 L 73.75798 58.973982 L 73.725465 61.407126 C 73.707455 62.745259 73.645342 64.920169 73.587733 66.240168 C 73.449898 69.398309 74.293337 71.367547 76.199891 72.340198 C 78.164088 73.342257 78.97942 73.090268 80.404554 71.039964 C 81.077395 70.071965 81.854735 69.230348 82.131867 69.169439 C 82.408997 69.108529 83.302627 69.696609 84.117838 70.476615 C 85.660281 71.952444 87.351738 73.252513 87.752575 73.269981 C 87.880518 73.275581 88.188548 72.956131 88.436851 72.560131 C 89.193439 71.353504 89.339943 69.621859 88.813513 68.110327 C 88.118237 66.113987 88.184544 65.833073 89.520806 65.119679 C 90.183733 64.76576 91.198923 63.764238 91.791009 62.879799 C 92.775531 61.409154 92.851908 61.118775 92.736136 59.283422 C 92.572494 56.689169 91.854319 55.704796 89.570126 54.94322 C 88.618561 54.625957 86.255868 54.243702 84.319869 54.093812 L 80.799848 53.82127 z M 101.51555 58.399307 C 99.028709 58.366421 96.715177 59.176432 95.668695 60.892731 C 94.926651 62.109733 94.853224 64.433689 95.520003 65.600098 C 96.267939 66.908475 96.099427 67.731673 94.896008 68.649565 C 93.471663 69.735967 92.480035 71.799902 92.480035 73.678062 C 92.480035 75.079097 93.047129 76.160161 93.782095 76.160161 C 94.418376 76.160161 96.623388 78.500278 96.966372 79.539527 C 97.237351 80.360602 97.66509 80.791691 98.664458 81.251496 C 100.1222 81.922193 102.53865 82.094626 103.79342 81.617563 C 104.23075 81.451291 105.71611 80.28013 107.09424 79.014903 C 108.47236 77.749677 110.21187 76.439171 110.95987 76.102438 C 111.70787 75.765704 112.32002 75.419726 112.32002 75.333769 C 112.32002 75.247809 112.08623 74.820688 111.80051 74.384623 C 111.42393 73.809893 111.21329 72.382314 111.0344 69.195743 C 110.76376 64.374649 110.54997 63.565411 109.0466 61.667246 C 107.37502 59.556707 104.33396 58.436578 101.51555 58.399307 z M 137.26413 59.36197 C 137.11321 59.386133 136.70846 60.112282 136.32777 61.053845 C 135.92169 62.058178 135.31487 63.340326 134.97931 63.902742 L 134.3692 64.92532 L 135.26464 65.480998 C 135.75707 65.786636 136.5198 66.354985 136.9598 66.744333 C 137.67046 67.373183 140.51348 69.403824 140.71985 69.429924 C 140.76385 69.435524 140.79887 69.188092 140.79767 68.880092 C 140.79667 68.572093 140.29844 67.981286 139.6907 67.567437 C 137.95115 66.382862 137.16428 64.414206 137.35656 61.726796 C 137.44396 60.505141 137.4144 59.443092 137.2908 59.366719 C 137.28307 59.361946 137.27419 59.360359 137.26413 59.36197 z M 66.342006 60.159866 C 65.188222 60.159866 62.156458 61.165575 60.973745 61.940518 C 59.580826 62.853194 58.391083 64.950821 57.62799 67.839978 C 56.249292 73.059889 56.000896 73.769474 55.054922 75.187999 C 54.028097 76.727764 54.156596 77.105979 55.709971 77.115151 C 56.831427 77.121751 59.557704 78.085287 62.081447 79.367088 C 63.224657 79.947721 64.591954 80.536422 65.119954 80.674994 C 66.621816 81.069155 68.777986 80.713842 70.301162 79.821202 C 73.967246 77.672733 74.849825 72.376825 72.029936 69.44673 C 71.397528 68.789606 70.664168 68.182837 70.400168 68.098271 C 69.991629 67.967403 69.979711 67.778396 70.320159 66.829456 C 70.803546 65.482104 70.840921 63.224303 70.393957 62.389151 C 69.924267 61.511526 67.467761 60.159866 66.342006 60.159866 z M 150.24016 62.93533 C 146.7133 62.95441 144.32737 64.343889 142.86438 67.230961 C 141.68944 69.549585 141.79072 69.946693 143.68018 70.430947 C 144.56017 70.656484 145.2782 70.921874 145.27597 71.020601 C 145.27397 71.119331 144.85353 72.025013 144.34217 73.033242 C 143.71586 74.268117 143.34862 75.57364 143.21729 77.033316 C 143.11007 78.225085 142.95866 79.696893 142.88082 80.304177 C 142.75692 81.270696 142.9089 81.569762 144.09995 82.704075 C 144.84833 83.41679 146.29707 84.432031 147.3193 84.960031 C 148.34153 85.48803 149.24582 86.028613 149.32865 86.161259 C 149.54323 86.504869 150.88286 86.132712 153.25273 85.071459 C 154.95783 84.307903 155.96679 83.475527 159.20992 80.156216 C 161.35735 77.95834 163.27751 76.160161 163.47705 76.160161 C 164.06742 76.160161 163.89186 75.3458 163.15994 74.68968 C 162.32738 73.943344 159.70561 70.098168 158.75215 68.225409 C 156.95626 64.697993 154.08644 62.914527 150.24016 62.93533 z M 17.843897 64.280501 C 15.648609 64.263903 12.634536 64.810731 11.478632 65.525934 C 9.6145432 66.67932 7.9242051 68.748701 6.1180435 72.089212 C 5.1906667 73.804402 4.0828579 75.622957 3.6560381 76.130203 C 3.2292184 76.63745 2.8800625 77.11965 2.8800625 77.201736 C 2.8800625 77.283826 3.7962509 77.943257 4.9160851 78.667468 C 6.9814324 80.003157 7.8319684 80.92953 9.3710033 83.519873 C 10.874619 86.050599 12.746666 87.711943 15.003402 88.518412 C 16.718509 89.131325 17.298828 89.059554 19.497412 87.960908 C 21.953501 86.733586 23.251516 85.469721 24.489375 83.100466 C 25.385276 81.385717 25.411876 81.230419 24.951526 80.400626 C 24.68287 79.916367 23.747005 79.040545 22.871663 78.454477 C 21.99632 77.868408 21.229733 77.249823 21.168463 77.080079 C 21.107193 76.910336 21.447007 76.410455 21.923249 75.96909 C 22.726263 75.224881 22.751468 75.125205 22.274337 74.59798 C 21.312696 73.535379 21.617174 72.760925 23.120092 72.445415 L 24.479876 72.160087 L 24.562808 70.559911 C 24.712476 67.662635 22.353277 64.947097 19.200027 64.386814 C 18.8135 64.318134 18.350502 64.284331 17.843897 64.280501 z M 32.283838 65.019943 C 32.088507 65.027534 31.880303 65.365678 31.550972 66.059691 C 30.811809 67.617363 28.668052 69.352043 27.169121 69.605286 C 26.054817 69.793547 25.920034 69.915896 25.920034 70.738196 C 25.920034 71.778555 26.309366 71.753224 27.999897 70.602656 C 28.527897 70.243302 29.91666 69.182905 31.085898 68.246233 C 33.082156 66.647039 33.189304 66.494812 32.845726 65.753904 C 32.618444 65.263783 32.456189 65.013244 32.283838 65.019943 z M 129.89492 65.600098 C 128.31239 65.600098 127.57779 65.789987 126.12464 66.575182 C 124.31609 67.552413 122.69171 69.283905 122.36605 70.581466 C 122.10765 71.611037 124.65677 75.964793 126.48011 77.607991 C 128.04349 79.016904 128.36064 79.942142 127.51986 80.639922 C 126.7486 81.280013 126.96226 81.824544 128.07189 82.046469 C 129.45133 82.322357 131.45461 83.745562 132.03031 84.858832 C 132.61142 85.982582 133.90447 86.056313 136.43518 85.109454 C 138.56756 84.311628 140.96637 82.261159 141.3917 80.872642 C 141.56565 80.30479 141.80277 78.615899 141.91889 77.119901 C 142.03567 75.615351 142.39681 73.792459 142.72701 73.040184 C 143.13838 72.102982 143.20507 71.677596 142.94183 71.672362 C 141.9039 71.651722 138.63973 69.963668 136.56524 68.374831 C 133.6365 66.131734 132.35809 65.600098 129.89492 65.600098 z M 37.470161 66.559838 C 36.086082 66.559838 34.224404 67.565629 31.799401 69.622822 C 29.560841 71.521853 26.685763 73.107247 24.860192 73.449726 C 24.211063 73.571503 23.680154 73.743766 23.680154 73.832599 C 23.680154 73.921429 24.167376 74.661402 24.763012 75.476981 C 25.767298 76.852104 26.915036 79.831057 27.918793 83.667104 C 28.300004 85.123976 28.477755 85.329007 30.087067 86.171853 C 31.621591 86.975531 32.053454 87.063603 33.551557 86.87805 C 34.593101 86.749044 35.827586 86.307981 36.705876 85.750985 C 37.499598 85.247622 38.5637 84.74441 39.070702 84.633054 C 40.388961 84.343516 40.452081 84.008141 39.360779 83.089871 C 38.07688 82.009541 38.148872 81.332462 39.708215 79.824855 C 40.427807 79.129137 41.498673 77.610059 42.087654 76.449142 C 42.676634 75.288226 43.519723 73.909245 43.961102 73.384696 L 44.763381 72.431167 L 44.022843 70.832818 C 42.823318 68.243765 40.241244 66.559838 37.470161 66.559838 z M 48.22093 67.305856 L 46.8005 68.666735 C 45.701326 69.719929 45.427959 70.17804 45.5916 70.693625 C 45.847201 71.498951 45.905266 71.499825 47.519848 70.719929 C 48.223848 70.379873 49.100062 70.096791 49.466729 70.090819 C 50.537575 70.073379 50.517598 69.834382 49.336303 68.533753 L 48.22093 67.305856 z M 112.93306 67.542229 C 112.67532 67.533875 112.49718 67.556142 112.4362 67.617123 C 112.12561 67.92771 112.29294 71.887649 112.65723 72.845824 C 112.83066 73.301967 113.40252 74.076542 113.92787 74.567292 C 114.92767 75.501244 114.94695 76.474023 113.96586 76.487137 C 112.80732 76.502627 110.6224 77.827827 108.55559 79.768959 C 107.35672 80.894925 105.98741 82.070808 105.5127 82.381848 L 104.64941 82.94739 L 106.20866 83.724461 C 108.38716 84.810051 110.40018 88.022237 110.40018 90.413415 C 110.40018 90.816619 110.57985 91.219353 110.79985 91.308125 C 111.58917 91.626621 114.43014 91.504528 116.00006 91.084539 C 120.71178 89.824045 123.26317 87.303828 125.27816 81.920062 C 125.57457 81.128063 125.94543 80.32461 126.10236 80.134661 C 126.28556 79.912906 125.84575 79.219861 124.87373 78.198375 C 124.04112 77.323401 122.85601 75.633815 122.24001 74.443808 C 120.69941 71.467618 119.09787 69.44632 117.71605 68.734323 C 116.66185 68.191129 114.04991 67.578426 112.93306 67.542229 z M 52.212601 71.222267 C 48.020267 71.260387 45.602918 72.894346 43.32505 77.229137 C 42.68375 78.449533 41.686989 79.970265 41.110378 80.608503 L 40.062226 81.768813 L 41.018678 82.724534 C 41.927004 83.631807 42.211098 84.149634 43.788662 87.774221 C 44.79888 90.095282 45.721458 91.213259 47.168394 91.870378 C 48.759928 92.593166 50.249078 92.633159 52.34193 92.009937 C 53.209873 91.751475 54.692042 91.067673 55.635808 90.490136 C 57.128209 89.57686 57.430031 89.213972 57.951313 87.705538 C 58.280961 86.751633 58.838424 85.665077 59.19017 85.290661 L 59.82951 84.609673 L 58.677603 82.864824 C 57.566609 81.182153 57.543476 81.088546 58.028764 80.238417 C 58.525769 79.367766 58.518828 79.351394 57.455551 78.907129 C 56.863428 78.659724 55.418019 78.354438 54.243874 78.228698 C 52.907147 78.085546 52.046278 77.836269 51.941156 77.562324 C 51.848816 77.321698 52.442627 76.22452 53.260387 75.124065 C 54.751821 73.117056 55.312418 71.845035 54.890886 71.425029 C 54.766632 71.301225 53.561483 71.210003 52.212601 71.222267 z M 82.625802 71.389957 C 82.280095 71.37367 81.696368 71.88461 80.189736 73.37812 C 78.912613 74.644121 76.759014 76.68799 75.403822 77.919989 C 73.359408 79.778557 72.836096 80.461427 72.331339 81.930657 C 71.751158 83.619427 71.747974 83.785469 72.260098 85.517535 C 72.792843 87.319329 72.8096 87.336792 74.398415 87.709191 C 77.361593 88.403723 78.757237 89.543843 79.544185 91.913123 C 79.923 93.053626 80.19518 93.433703 80.538998 93.301768 C 80.7993 93.201878 81.134481 93.119831 81.283554 93.119831 C 81.432628 93.119831 82.100927 92.604588 82.769014 91.974499 C 83.713539 91.083697 84.17004 90.866205 84.821477 90.996492 C 85.352464 91.102689 86.224913 90.877591 87.203839 90.381996 C 88.421694 89.765439 89.241988 89.600175 91.08189 89.600175 L 93.415297 89.600175 L 93.775885 88.261215 C 93.974169 87.524842 94.567573 86.120863 95.094751 85.141238 C 95.900648 83.643688 96.032081 83.090557 95.919316 81.666884 C 95.720282 79.154062 95.073881 78.513546 90.361081 76.160161 C 86.2927 74.128573 83.73389 72.549202 82.917341 71.565319 C 82.829599 71.459596 82.741038 71.395386 82.625802 71.389957 z M 25.439982 79.040112 C 25.339535 79.040112 25.394252 79.29539 25.561274 79.60748 C 26.026495 80.476754 26.078571 83.272379 25.64457 84.079934 C 25.305387 84.711056 25.333523 84.800013 25.872541 84.800013 C 26.352497 84.800013 26.533002 84.495709 26.695279 83.41356 C 26.849877 82.382632 26.739119 81.64416 26.263086 80.533609 C 25.910973 79.712163 25.540429 79.040112 25.439982 79.040112 z M 59.885041 79.999852 C 59.194404 79.999852 59.267449 81.075914 60.037387 82.239367 L 60.865605 83.490646 L 61.8195 82.78518 C 62.63687 82.180682 63.169643 82.083058 65.546667 82.100904 C 67.072085 82.112354 68.860072 82.200331 69.520071 82.296359 C 70.180071 82.392389 70.719838 82.430574 70.719838 82.381483 C 70.719838 82.332393 70.793652 82.099999 70.883874 81.864897 C 71.015426 81.522079 70.27122 81.440761 67.124192 81.453893 C 63.662422 81.468333 63.022091 81.383401 61.690536 80.734909 C 60.860388 80.330613 60.048062 79.999852 59.885041 79.999852 z M 126.87614 83.124213 C 126.40331 83.135568 126.16257 83.479547 125.63947 84.712698 C 123.49811 89.760774 118.74695 92.800161 112.99662 92.800161 L 110.9511 92.800161 L 111.12318 94.69699 C 111.41798 97.948126 113.55431 101.00269 116.05924 101.75457 C 117.46812 102.17745 118.77801 102.12309 120.66176 101.56386 C 122.82555 100.92151 125.88466 99.39555 126.7574 98.522798 C 127.69157 97.588626 129.3602 96.959887 130.90617 96.959887 L 132.23271 96.959887 L 132.11032 92.560134 C 132.00205 88.660746 131.89785 87.978106 131.19406 86.562033 C 130.3672 84.898351 128.47778 83.320175 127.09461 83.138096 C 127.0161 83.127761 126.94369 83.122591 126.87614 83.124213 z M 65.963151 83.237102 C 64.995683 83.249493 64.029346 83.352054 63.5596 83.507086 C 61.311119 84.249151 58.553169 88.382912 58.562522 90.996858 C 58.565322 91.778873 59.521023 94.95047 60.283989 96.709631 C 60.567786 97.363977 60.799845 98.382428 60.799845 98.972528 L 60.799845 100.04516 L 62.480029 99.812437 C 64.439837 99.541021 67.640461 100.21116 68.639975 101.10208 C 69.908492 102.23278 70.54518 102.42379 72.586344 102.28613 C 74.23225 102.17512 74.832854 101.97211 75.78633 101.2051 C 77.406589 99.901722 78.75253 97.812374 78.95782 96.281822 C 79.365389 93.243166 76.990315 89.555971 74.339231 89.111719 C 71.742046 88.6765 71.586407 88.560193 71.177605 86.745067 C 70.600946 84.184634 69.655439 83.41108 66.912662 83.256099 C 66.608215 83.238897 66.285641 83.232972 65.963151 83.237102 z M 101.84325 83.994445 C 100.99757 83.977886 100.11507 84.08886 99.217212 84.340785 C 96.725891 85.039814 95.524277 86.369181 95.00707 88.9981 L 94.649405 90.816016 L 92.010577 90.816016 C 89.064571 90.816016 87.799231 91.276156 86.789547 92.715037 C 83.250232 97.758847 90.360229 104.73519 97.881541 103.59842 C 98.828359 103.45532 99.88038 103.1898 100.21933 103.0084 C 100.55827 102.827 101.75048 102.65296 102.86875 102.62188 L 104.90185 102.56562 L 105.11338 100.59097 C 105.26979 99.130489 105.60873 98.171979 106.41508 96.908374 C 108.59271 93.49588 109.21617 91.906786 108.99911 90.323177 C 108.47979 86.534357 105.50787 84.066201 101.84325 83.994445 z M 141.42495 84.862486 C 140.72442 84.860507 140.22224 85.029763 139.27092 85.439353 C 136.95957 86.43451 135.96276 87.988353 135.52366 91.279994 C 135.35206 92.566404 135.21331 92.800763 134.62055 92.80491 C 133.18397 92.81496 133.01039 93.188177 133.40069 95.429491 C 133.9786 98.748082 134.02998 98.639883 131.99634 98.385797 C 129.90979 98.1251 128.31995 98.634989 128.31995 99.565104 C 128.31995 100.45088 129.7329 102.54634 130.94782 103.46215 C 133.64469 105.49505 135.98651 105.61846 141.10418 103.99774 C 143.10775 103.36322 144.7964 103.03982 146.10784 103.03982 L 148.08723 103.03982 L 148.24506 99.759829 C 148.36928 97.173061 148.57814 96.074194 149.23366 94.559989 C 150.20402 92.318525 150.30128 90.406107 149.52776 88.784012 C 148.76208 87.178371 145.79702 85.465294 143.0401 85.036021 C 142.33719 84.926572 141.84527 84.863673 141.42495 84.862486 z M 40.834548 85.521554 C 40.707637 85.522759 40.557782 85.550579 40.372032 85.596813 C 38.726185 86.006471 36.651566 87.545712 35.882407 88.927955 C 35.19994 90.154402 35.120149 90.715318 35.076473 94.584832 C 35.029823 98.718202 35.052465 98.880098 35.684029 98.880098 C 37.031858 98.880098 39.706947 99.771632 40.956205 100.63737 C 42.387065 101.62896 45.613448 102.66192 47.389788 102.69714 C 48.022235 102.70964 49.376631 102.43198 50.399434 102.08008 C 52.74272 101.27387 54.105582 100.23958 55.126528 98.492475 C 56.001122 96.995817 57.279824 93.155071 57.279824 92.024916 C 57.279824 91.331978 57.233573 91.339808 55.072458 92.412538 C 53.486971 93.19954 52.27133 93.556269 50.75856 93.6777 C 46.750438 93.999434 44.52233 92.741734 42.968116 89.28014 C 42.533496 88.312141 41.963192 87.039628 41.700762 86.452432 C 41.388638 85.754044 41.215281 85.517937 40.834548 85.521554 z M 25.924418 86.11413 C 25.012365 86.069918 24.227947 86.47906 23.154799 87.367966 C 22.299636 88.076312 20.917921 88.964955 20.084143 89.342978 C 19.250365 89.721 18.479566 90.309124 18.371443 90.649788 C 18.097111 91.514136 18.502592 94.432285 19.196374 96.587974 C 20.078063 99.327518 20.253637 101.38506 19.747667 103.04603 L 19.307071 104.49204 L 22.533727 104.39961 C 24.490184 104.34341 26.515608 104.48191 27.679862 104.75179 C 30.843252 105.48493 33.633384 105.40166 35.590868 104.51542 C 36.519885 104.09481 37.780806 103.32107 38.393002 102.79614 C 39.332936 101.9902 39.442691 101.76512 39.097371 101.34904 C 38.586055 100.73295 36.045555 100.10491 34.559887 100.22746 C 33.459463 100.31826 33.441571 100.30054 33.539866 99.200133 C 33.594886 98.584133 33.743695 96.063881 33.870496 93.599883 C 33.997298 91.135886 34.219792 88.86806 34.364797 88.560061 C 34.602052 88.056113 34.408957 87.998638 32.434357 87.987212 C 30.627499 87.976752 29.929234 87.807475 28.47995 87.027472 C 27.42041 86.457229 26.633794 86.148518 25.924418 86.11413 z M 133.12011 87.039894 L 133.12011 89.303521 C 133.12011 91.286879 133.18947 91.553711 133.68017 91.459374 C 134.05914 91.386514 134.30218 90.939225 134.43204 90.075843 C 134.53757 89.374152 134.73287 88.40399 134.86642 87.91999 C 135.09359 87.096651 135.04521 87.039894 134.11456 87.039894 L 133.12011 87.039894 z M 109.70129 94.705027 L 108.65861 96.072483 C 106.80262 98.507313 106.41775 99.502231 106.42714 101.84006 L 106.43627 103.99993 L 104.21721 103.99993 L 101.99816 103.99993 L 102.79751 105.04004 C 103.93233 106.51707 105.15991 107.14648 109.56319 108.50819 C 111.69551 109.16761 113.51216 109.7188 113.60016 109.73316 C 113.68816 109.74756 114.45778 108.39964 115.3103 106.73776 L 115.30994 106.73776 C 116.16247 105.0759 116.77632 103.58027 116.67374 103.41429 C 116.57116 103.24832 115.97273 103.01597 115.34428 102.89807 C 113.0555 102.46869 110.44795 99.181884 109.92926 96.072483 L 109.70129 94.705027 z M 57.979079 95.365557 C 57.954424 95.369444 57.940427 95.400028 57.938526 95.459813 C 57.928386 95.778666 57.400093 97.105763 56.764699 98.408813 C 55.484056 101.03512 54.432567 102.01824 51.791367 103.05919 C 50.850035 103.43019 50.034113 103.77968 49.977835 103.83589 C 49.860237 103.95334 50.794231 105.84972 52.364946 108.68245 L 53.45292 110.64468 L 55.926616 109.38646 C 57.701361 108.48372 59.194161 108.00104 61.211214 107.67778 C 64.790945 107.10408 66.427702 106.09338 67.339375 103.89362 C 68.062342 102.14917 67.981675 102.02012 65.784867 101.41261 C 64.578569 101.07902 62.763786 101.14898 60.559818 101.61355 L 59.52007 101.83275 L 59.52007 100.07731 C 59.52007 98.89915 59.263206 97.7563 58.738614 96.601126 C 58.389351 95.832038 58.085916 95.348712 57.979079 95.365557 z "
       transform="matrix(5.3460928,0,0,5.3460928,-8.6314564,-10.376084)" />
  </g>
</svg>
